<svg width="80" height="80" viewBox="0 0 80 80" fill="none" xmlns="http://www.w3.org/2000/svg">
<path fill-rule="evenodd" clip-rule="evenodd" d="M63.3333 36.6667C63.3333 51.3943 48.3333 66.6667 40 66.6667C31.6667 66.6667 16.6667 51.3943 16.6667 36.6667C16.6667 21.9391 27.1134 13.3333 40 13.3333C52.8867 13.3333 63.3333 21.9391 63.3333 36.6667ZM48.3333 36.6667C48.3333 41.269 44.6024 45 40 45C35.3976 45 31.6667 41.269 31.6667 36.6667C31.6667 32.0643 35.3976 28.3333 40 28.3333C44.6024 28.3333 48.3333 32.0643 48.3333 36.6667ZM12.3827 21.1367C13.0104 19.907 12.5224 18.4012 11.2926 17.7735C10.0628 17.1457 8.55703 17.6338 7.9293 18.8635C5.50221 23.6183 4.16669 29.1793 4.16669 35.4168C4.16669 39.5143 4.97344 43.591 6.33572 47.4912C6.791 48.7947 8.21677 49.4823 9.52026 49.027C10.8237 48.5717 11.5113 47.1459 11.0561 45.8425C9.84597 42.3779 9.16669 38.861 9.16669 35.4168C9.16669 29.9039 10.3436 25.1314 12.3827 21.1367ZM72.0707 18.8635C71.443 17.6338 69.9372 17.1457 68.7074 17.7735C67.4777 18.4012 66.9896 19.907 67.6174 21.1367C69.6564 25.1314 70.8333 29.9039 70.8333 35.4168C70.8333 38.861 70.1541 42.3779 68.944 45.8425C68.4887 47.1459 69.1763 48.5717 70.4798 49.027C71.7833 49.4823 73.209 48.7947 73.6643 47.4912C75.0266 43.591 75.8333 39.5143 75.8333 35.4168C75.8333 29.1793 74.4978 23.6183 72.0707 18.8635Z" fill="#455A64"/>
</svg>
